<svg version="1.1" xmlns="http://www.w3.org/2000/svg" viewBox="-2933.3927309014143 -1234.7 10345.592730901413 2900.35"><desc>Created with Snap</desc><defs></defs><g><rect x="-2933.3927309014143" y="-1234.7" width="10345.592730901413" height="2900.35" fill="#000000" style=""></rect><g transform="matrix(25.4277,0,0,25.4277,-2753.3312,-1054.6385)"><g><path d="M78.4,66.5c-5.5,4.8-9.9,15.2-9.9,15.2s-6.9-11.4-12.9-15.3c-9.5-6.1-13.6-6.2-13.6-6.2V65c0,0,7.8,1.2,11.7,4.6   c8.2,7.1,14.8,18.5,14.8,18.5S74.4,75,80.1,70.5C88.1,64.3,95,65,95,65v-4.8C95,60.1,85.1,60.7,78.4,66.5z" fill="#ffffff" style=""></path><path d="M42,80c-6.4-3.6-17.8-4.3-17.8-4.3s8.7-10.1,10.5-17C37.5,47.9,36.2,44,36.2,44l-4.6,1.6c0,0,1.3,7.7-0.6,12.4   c-4.1,9.9-13,19.8-13,19.8s14.6,1.3,20.7,5.1c8.6,5.4,10.2,12,10.2,12l4.6-1.6C53.5,93.4,49.7,84.4,42,80z" fill="#ffffff" style=""></path><path d="M35.3,36.8c11.3-0.9,14.6-3.4,14.6-3.4l-3-3.8c0,0-6.9,3.7-12.1,3.4c-10.9-0.6-23.3-5.6-23.3-5.6s3.5,14,1.8,20.9   C10.9,58.2,5,61.8,5,61.8l3,3.8c0,0,7.5-6.5,9.1-15.1c1.3-7.1-1.7-18-1.7-18S28,37.4,35.3,36.8z" fill="#ffffff" style=""></path><path d="M37.4,17.8c7.3-1.1,16.7-7.4,16.7-7.4s-0.6,13.2,2.4,19.8c4.6,10.2,8,12.5,8,12.5l2.7-4c0,0-5.9-5.2-7.3-10.2   C56.9,18.2,57.7,5,57.7,5s-12.3,7.8-19.5,8.5c-10.2,1-15.6-3.3-15.6-3.3l-2.7,4.1C19.9,14.2,28.6,19.1,37.4,17.8z" fill="#ffffff" style=""></path><path d="M65,60.5c0,0,3.1-7.2,7.4-10.1c9-6.1,21.9-9.7,21.9-9.7s-11.5-8.9-14.5-15.4c-4.2-9.1-1.9-15.6-1.9-15.6l-4.8-1.2   c0,0-1.9,9.6,2.2,17.4c3.4,6.4,12.5,13.2,12.5,13.2S75,42.9,69.6,47.8c-8.3,7.6-9.4,11.5-9.4,11.5L65,60.5z" fill="#ffffff" style=""></path></g><desc>Created with Snap</desc><defs></defs></g><g><g transform="matrix(0.5,0,0,-0.5,0,0)"><path d="M1128 358L1030 358L670 1075L657 834Q651 729 646 625Q642 522 630 428Q618 335 592 255Q567 175 518 116Q470 58 392 25Q315 -8 199 -8Q148 -8 101 0Q54 9 18 24Q-18 39 -40 59Q-61 80 -61 104Q-61 122 -56 140Q-51 159 -41 174Q-31 190 -17 199Q-2 209 16 209Q27 209 35 198Q44 187 53 170Q62 154 73 135Q85 116 103 99Q122 83 148 72Q174 61 213 61Q290 61 342 87Q395 114 429 164Q463 214 481 285Q499 356 508 446Q512 496 516 542Q520 589 524 635Q528 681 531 728Q535 776 539 829Q544 906 548 975Q552 1045 554 1105Q557 1165 558 1213Q560 1261 561 1296Q544 1331 531 1352Q518 1374 504 1385Q490 1397 473 1401Q456 1405 432 1405Q412 1405 382 1397Q353 1390 321 1376Q290 1362 258 1341Q227 1321 202 1294Q178 1268 162 1236Q147 1204 147 1167Q147 1135 155 1116Q164 1097 175 1087Q187 1078 198 1075Q210 1073 215 1073Q240 1073 256 1081Q272 1090 285 1099Q298 1109 309 1117Q321 1126 336 1126Q348 1126 361 1120Q375 1115 386 1103Q398 1091 406 1071Q414 1052 414 1024Q414 984 398 955Q383 926 358 906Q334 887 302 877Q271 868 240 868Q192 868 153 884Q115 901 88 930Q61 959 47 998Q33 1037 33 1081Q33 1185 81 1262Q129 1340 207 1392Q285 1444 383 1469Q482 1495 584 1495Q666 1495 721 1478Q776 1462 813 1434Q850 1407 874 1370Q898 1333 918 1292L1182 756Q1285 959 1369 1119Q1454 1280 1526 1402Q1598 1524 1660 1610Q1723 1696 1781 1750Q1840 1805 1897 1830Q1955 1855 2017 1855Q2070 1855 2103 1832Q2136 1810 2136 1765Q2136 1725 2123 1699Q2110 1673 2087 1673Q2068 1673 2058 1687Q2048 1702 2038 1719Q2029 1736 2015 1750Q2001 1765 1974 1765Q1958 1765 1935 1756Q1912 1747 1887 1729Q1863 1711 1839 1684Q1815 1657 1797 1621Q1779 1585 1769 1539Q1759 1493 1763 1438Q1767 1375 1774 1290Q1781 1206 1789 1109Q1798 1013 1807 910Q1817 807 1827 707Q1837 607 1846 515Q1856 423 1864 348Q1872 274 1879 222Q1886 171 1890 152Q1896 123 1906 105Q1916 88 1942 88Q1969 88 1993 97Q2017 107 2036 117L2052 80Q2034 67 2006 50Q1979 34 1943 19Q1908 4 1865 -6Q1823 -16 1774 -16Q1705 -16 1665 1Q1625 19 1603 44Q1582 70 1574 98Q1567 127 1563 150Q1554 201 1544 273Q1534 345 1524 427Q1515 510 1506 597Q1497 685 1489 768Q1482 852 1476 926Q1470 1000 1466 1055Q1436 1006 1410 960Q1385 915 1361 867Q1337 820 1312 768Q1287 716 1259 655Q1232 594 1199 521Q1167 448 1128 358ZM2629 274L2629 518Q2629 543 2613 556Q2597 569 2572 569Q2537 569 2505 553Q2474 537 2450 506Q2426 475 2412 429Q2398 384 2398 324Q2398 266 2406 228Q2415 190 2429 167Q2444 145 2463 136Q2482 127 2503 127Q2529 127 2552 140Q2575 154 2592 175Q2609 196 2619 222Q2629 248 2629 274ZM2470 956Q2436 956 2407 948Q2378 940 2357 928Q2336 916 2324 901Q2312 887 2312 874Q2312 859 2327 852Q2343 846 2362 837Q2381 829 2396 813Q2412 798 2412 766Q2412 745 2403 727Q2395 710 2380 696Q2366 683 2346 675Q2327 668 2306 668Q2250 668 2215 706Q2181 744 2181 807Q2181 868 2213 911Q2245 955 2296 983Q2348 1011 2413 1024Q2478 1038 2543 1038Q2621 1038 2692 1021Q2763 1004 2817 967Q2872 930 2904 873Q2937 816 2937 735L2937 170Q2937 161 2938 150Q2939 139 2943 130Q2947 121 2955 115Q2963 109 2978 109Q2996 109 3011 122Q3027 136 3039 150L3064 129Q3049 108 3028 83Q3007 58 2977 36Q2947 14 2907 -1Q2867 -16 2816 -16Q2753 -16 2704 21Q2655 59 2640 137Q2608 94 2573 65Q2539 36 2503 18Q2467 0 2430 -8Q2394 -16 2357 -16Q2309 -16 2264 -1Q2219 14 2183 46Q2148 79 2126 131Q2105 183 2105 258Q2105 349 2141 407Q2177 465 2235 504Q2294 544 2368 572Q2443 600 2521 631Q2579 654 2605 699Q2632 745 2632 793Q2632 867 2588 911Q2545 956 2470 956ZM3518 872L3518 90Q3518 77 3513 58Q3509 40 3492 23Q3476 7 3445 -5Q3414 -16 3361 -16Q3308 -16 3278 -4Q3248 9 3233 26Q3218 43 3214 61Q3211 79 3211 90L3211 862Q3211 891 3197 912Q3184 934 3152 934Q3135 934 3123 928Q3111 922 3097 911L3076 936Q3099 955 3127 973Q3156 992 3189 1006Q3222 1020 3260 1029Q3298 1038 3340 1038Q3405 1038 3441 1020Q3477 1003 3494 977Q3511 952 3514 923Q3518 894 3518 872ZM3180 1266Q3180 1294 3192 1319Q3205 1345 3227 1364Q3250 1383 3279 1394Q3309 1405 3344 1405Q3378 1405 3407 1394Q3437 1383 3459 1364Q3481 1345 3493 1319Q3506 1294 3506 1266Q3506 1237 3493 1212Q3481 1187 3459 1168Q3437 1150 3407 1139Q3378 1128 3344 1128Q3309 1128 3279 1139Q3250 1150 3227 1168Q3205 1187 3192 1212Q3180 1237 3180 1266ZM4249 952L4094 952L4094 213Q4094 160 4114 139Q4134 119 4169 119Q4196 119 4217 134Q4238 149 4253 168Q4271 189 4284 217L4315 203Q4300 171 4279 133Q4259 95 4225 62Q4191 30 4139 8Q4088 -14 4010 -14Q3966 -14 3925 -1Q3885 12 3853 40Q3822 68 3803 110Q3784 152 3784 211L3784 952L3672 952L3672 1024Q3700 1024 3750 1038Q3800 1053 3852 1087Q3905 1121 3950 1178Q3995 1235 4014 1319L4094 1319L4094 1024L4257 1024Q4337 1024 4337 1051Q4337 1061 4327 1064Q4317 1068 4304 1073Q4292 1079 4282 1089Q4272 1099 4272 1122Q4272 1150 4289 1166Q4307 1182 4335 1182Q4353 1182 4366 1174Q4380 1167 4389 1154Q4398 1142 4402 1126Q4407 1110 4407 1094Q4407 1029 4369 990Q4332 952 4249 952ZM4779 827Q4817 885 4860 932Q4878 952 4899 971Q4920 990 4942 1005Q4965 1020 4989 1029Q5013 1038 5037 1038Q5088 1038 5117 1007Q5146 977 5146 922Q5146 888 5140 856Q5135 825 5119 780L5091 780Q5085 811 5063 831Q5041 852 4999 852Q4968 852 4938 840Q4908 829 4879 812Q4851 795 4825 775Q4800 755 4779 737L4779 88Q4779 75 4775 57Q4771 39 4755 23Q4740 7 4709 -5Q4679 -16 4626 -16Q4573 -16 4542 -4Q4512 9 4496 26Q4480 43 4476 61Q4472 79 4472 90L4472 862Q4472 891 4458 912Q4445 934 4413 934Q4396 934 4384 928Q4372 922 4358 911L4337 936Q4360 955 4388 973Q4417 992 4450 1006Q4483 1020 4521 1029Q4559 1038 4601 1038Q4644 1038 4674 1026Q4705 1015 4724 996Q4744 978 4755 955Q4766 932 4771 908Q4777 885 4778 863Q4779 842 4779 827ZM5723 274L5723 518Q5723 543 5707 556Q5691 569 5666 569Q5631 569 5599 553Q5568 537 5544 506Q5520 475 5506 429Q5492 384 5492 324Q5492 266 5500 228Q5509 190 5523 167Q5538 145 5557 136Q5576 127 5597 127Q5623 127 5646 140Q5669 154 5686 175Q5703 196 5713 222Q5723 248 5723 274ZM5564 956Q5530 956 5501 948Q5472 940 5451 928Q5430 916 5418 901Q5406 887 5406 874Q5406 859 5421 852Q5437 846 5456 837Q5475 829 5490 813Q5506 798 5506 766Q5506 745 5497 727Q5489 710 5474 696Q5460 683 5440 675Q5421 668 5400 668Q5344 668 5309 706Q5275 744 5275 807Q5275 868 5307 911Q5339 955 5390 983Q5442 1011 5507 1024Q5572 1038 5637 1038Q5715 1038 5786 1021Q5857 1004 5911 967Q5966 930 5998 873Q6031 816 6031 735L6031 170Q6031 161 6032 150Q6033 139 6037 130Q6041 121 6049 115Q6057 109 6072 109Q6090 109 6105 122Q6121 136 6133 150L6158 129Q6143 108 6122 83Q6101 58 6071 36Q6041 14 6001 -1Q5961 -16 5910 -16Q5847 -16 5798 21Q5749 59 5734 137Q5702 94 5667 65Q5633 36 5597 18Q5561 0 5524 -8Q5488 -16 5451 -16Q5403 -16 5358 -1Q5313 14 5277 46Q5242 79 5220 131Q5199 183 5199 258Q5199 349 5235 407Q5271 465 5329 504Q5388 544 5462 572Q5537 600 5615 631Q5673 654 5699 699Q5726 745 5726 793Q5726 867 5682 911Q5639 956 5564 956ZM7465 1356L7465 131Q7465 54 7424 19Q7384 -16 7301 -16Q7217 -16 7177 19Q7137 54 7137 131L7137 1335Q7137 1357 7132 1370Q7127 1383 7118 1390Q7109 1398 7096 1400Q7084 1403 7069 1403Q7047 1403 7014 1396Q6982 1389 6946 1375Q6910 1361 6873 1340Q6837 1320 6808 1294Q6780 1268 6762 1236Q6744 1204 6744 1167Q6744 1135 6752 1116Q6761 1097 6772 1087Q6783 1078 6794 1075Q6806 1073 6811 1073Q6836 1073 6852 1081Q6868 1090 6881 1099Q6894 1109 6905 1117Q6917 1126 6932 1126Q6944 1126 6957 1120Q6971 1115 6982 1103Q6994 1091 7002 1071Q7010 1052 7010 1024Q7010 984 6994 955Q6979 926 6954 906Q6930 887 6898 877Q6867 868 6836 868Q6788 868 6749 884Q6711 901 6684 930Q6657 959 6643 998Q6629 1037 6629 1081Q6629 1150 6654 1207Q6679 1265 6722 1311Q6766 1357 6824 1391Q6883 1426 6951 1449Q7019 1472 7093 1483Q7167 1495 7241 1495Q7323 1495 7368 1479Q7414 1464 7435 1442Q7457 1420 7461 1396Q7465 1372 7465 1356ZM8329 498Q8329 624 8317 699Q8306 775 8287 814Q8268 854 8245 866Q8222 879 8198 879Q8169 879 8146 863Q8124 848 8107 828Q8091 808 8079 788Q8068 768 8060 758L8060 90Q8060 77 8056 58Q8052 40 8036 23Q8021 7 7990 -5Q7960 -16 7907 -16Q7854 -16 7823 -4Q7793 9 7777 26Q7761 43 7757 61Q7753 79 7753 90L7753 862Q7753 891 7739 912Q7726 934 7694 934Q7677 934 7665 928Q7653 922 7639 911L7618 936Q7641 955 7669 973Q7698 992 7731 1006Q7764 1020 7802 1029Q7840 1038 7882 1038Q7947 1038 7983 1016Q8019 995 8036 965Q8053 935 8056 902Q8060 870 8060 848Q8097 901 8144 943Q8163 961 8186 978Q8210 995 8236 1008Q8263 1022 8292 1030Q8322 1038 8353 1038Q8421 1038 8473 1012Q8526 986 8562 925Q8598 864 8617 763Q8636 663 8636 514Q8636 369 8610 262Q8584 155 8542 80Q8500 5 8447 -43Q8394 -90 8340 -117Q8286 -144 8236 -155Q8187 -165 8151 -166L8140 -125Q8170 -118 8195 -103Q8221 -88 8242 -59Q8263 -30 8279 14Q8295 59 8306 126Q8318 193 8323 284Q8329 376 8329 498ZM9164 958Q9141 958 9120 952Q9100 946 9084 932Q9068 919 9059 898Q9050 878 9050 850Q9050 811 9078 772Q9107 734 9149 692Q9192 651 9241 606Q9291 562 9333 512Q9376 463 9404 407Q9433 351 9433 287Q9433 215 9408 159Q9384 103 9338 64Q9293 25 9228 4Q9164 -16 9085 -16Q9016 -16 8960 3Q8904 23 8860 51Q8817 80 8786 112Q8755 144 8738 170L8773 195Q8786 180 8806 162Q8826 145 8850 130Q8875 115 8903 105Q8931 96 8960 96Q9032 96 9078 130Q9124 165 9124 233Q9124 271 9099 311Q9074 352 9036 395Q8998 438 8954 484Q8910 530 8872 579Q8834 628 8809 680Q8784 732 8784 788Q8784 851 8809 898Q8835 945 8877 976Q8920 1007 8974 1022Q9029 1038 9087 1038Q9154 1038 9209 1026Q9264 1014 9303 989Q9343 965 9364 928Q9386 891 9386 842Q9386 804 9361 776Q9336 748 9291 748Q9248 748 9225 766Q9203 785 9203 817Q9203 838 9213 850Q9224 862 9237 869Q9250 877 9260 882Q9271 888 9271 897Q9271 925 9241 941Q9211 958 9164 958ZM10098 952L9943 952L9943 213Q9943 160 9963 139Q9983 119 10018 119Q10045 119 10066 134Q10087 149 10102 168Q10120 189 10133 217L10164 203Q10149 171 10128 133Q10108 95 10074 62Q10040 30 9988 8Q9937 -14 9859 -14Q9815 -14 9774 -1Q9734 12 9702 40Q9671 68 9652 110Q9633 152 9633 211L9633 952L9521 952L9521 1024Q9549 1024 9599 1038Q9649 1053 9701 1087Q9754 1121 9799 1178Q9844 1235 9863 1319L9943 1319L9943 1024L10106 1024Q10186 1024 10186 1051Q10186 1061 10176 1064Q10166 1068 10153 1073Q10141 1079 10131 1089Q10121 1099 10121 1122Q10121 1150 10138 1166Q10156 1182 10184 1182Q10202 1182 10215 1174Q10229 1167 10238 1154Q10247 1142 10251 1126Q10256 1110 10256 1094Q10256 1029 10218 990Q10181 952 10098 952ZM10628 872L10628 90Q10628 77 10623 58Q10619 40 10602 23Q10586 7 10555 -5Q10524 -16 10471 -16Q10418 -16 10388 -4Q10358 9 10343 26Q10328 43 10324 61Q10321 79 10321 90L10321 862Q10321 891 10307 912Q10294 934 10262 934Q10245 934 10233 928Q10221 922 10207 911L10186 936Q10209 955 10237 973Q10266 992 10299 1006Q10332 1020 10370 1029Q10408 1038 10450 1038Q10515 1038 10551 1020Q10587 1003 10604 977Q10621 952 10624 923Q10628 894 10628 872ZM10290 1266Q10290 1294 10302 1319Q10315 1345 10337 1364Q10360 1383 10389 1394Q10419 1405 10454 1405Q10488 1405 10517 1394Q10547 1383 10569 1364Q10591 1345 10603 1319Q10616 1294 10616 1266Q10616 1237 10603 1212Q10591 1187 10569 1168Q10547 1150 10517 1139Q10488 1128 10454 1128Q10419 1128 10389 1139Q10360 1150 10337 1168Q10315 1187 10302 1212Q10290 1237 10290 1266ZM11359 952L11204 952L11204 213Q11204 160 11224 139Q11244 119 11279 119Q11306 119 11327 134Q11348 149 11363 168Q11381 189 11394 217L11425 203Q11410 171 11389 133Q11369 95 11335 62Q11301 30 11249 8Q11198 -14 11120 -14Q11076 -14 11035 -1Q10995 12 10963 40Q10932 68 10913 110Q10894 152 10894 211L10894 952L10782 952L10782 1024Q10810 1024 10860 1038Q10910 1053 10962 1087Q11015 1121 11060 1178Q11105 1235 11124 1319L11204 1319L11204 1024L11367 1024Q11447 1024 11447 1051Q11447 1061 11437 1064Q11427 1068 11414 1073Q11402 1079 11392 1089Q11382 1099 11382 1122Q11382 1150 11399 1166Q11417 1182 11445 1182Q11463 1182 11476 1174Q11490 1167 11499 1154Q11508 1142 11512 1126Q11517 1110 11517 1094Q11517 1029 11479 990Q11442 952 11359 952ZM12444 893L12444 174Q12444 165 12445 154Q12446 144 12450 134Q12454 125 12462 119Q12470 113 12485 113Q12504 113 12519 126Q12534 140 12547 154L12571 133Q12556 112 12533 86Q12511 61 12479 38Q12447 15 12406 -1Q12365 -16 12313 -16Q12269 -16 12236 -5Q12204 7 12181 26Q12159 46 12148 72Q12137 99 12137 129L12137 174Q12087 120 12032 79Q12008 61 11981 44Q11954 27 11925 13Q11896 0 11865 -8Q11834 -16 11803 -16Q11743 -16 11700 5Q11658 27 11632 62Q11606 97 11594 141Q11582 185 11582 229L11582 848Q11582 857 11581 867Q11580 878 11576 887Q11572 897 11564 903Q11556 909 11541 909Q11523 909 11507 895Q11492 882 11480 868L11455 889Q11470 910 11492 935Q11515 961 11547 984Q11579 1007 11620 1022Q11662 1038 11713 1038Q11757 1038 11790 1026Q11823 1015 11845 995Q11867 976 11878 949Q11889 923 11889 893L11889 225Q11889 211 11893 196Q11898 182 11906 170Q11915 158 11928 150Q11941 143 11959 143Q11988 143 12017 158Q12046 173 12070 193Q12094 214 12111 234Q12129 254 12137 264L12137 848Q12137 857 12136 867Q12135 878 12131 887Q12127 897 12119 903Q12111 909 12096 909Q12078 909 12062 895Q12047 882 12035 868L12010 889Q12025 910 12047 935Q12070 961 12102 984Q12134 1007 12175 1022Q12217 1038 12268 1038Q12312 1038 12345 1026Q12378 1015 12400 995Q12422 976 12433 949Q12444 923 12444 893ZM13186 952L13031 952L13031 213Q13031 160 13051 139Q13071 119 13106 119Q13133 119 13154 134Q13175 149 13190 168Q13208 189 13221 217L13252 203Q13237 171 13216 133Q13196 95 13162 62Q13128 30 13076 8Q13025 -14 12947 -14Q12903 -14 12862 -1Q12822 12 12790 40Q12759 68 12740 110Q12721 152 12721 211L12721 952L12609 952L12609 1024Q12637 1024 12687 1038Q12737 1053 12789 1087Q12842 1121 12887 1178Q12932 1235 12951 1319L13031 1319L13031 1024L13194 1024Q13274 1024 13274 1051Q13274 1061 13264 1064Q13254 1068 13241 1073Q13229 1079 13219 1089Q13209 1099 13209 1122Q13209 1150 13226 1166Q13244 1182 13272 1182Q13290 1182 13303 1174Q13317 1167 13326 1154Q13335 1142 13339 1126Q13344 1110 13344 1094Q13344 1029 13306 990Q13269 952 13186 952ZM14050 692L13655 459Q13655 427 13664 389Q13674 352 13692 314Q13710 276 13736 241Q13763 207 13797 180Q13832 153 13874 137Q13916 121 13966 121Q14001 121 14031 129Q14061 137 14087 151Q14113 165 14137 183Q14161 202 14185 223L14210 199Q14187 168 14151 131Q14115 94 14064 61Q14013 29 13945 7Q13877 -14 13790 -14Q13703 -14 13620 17Q13538 49 13474 112Q13410 175 13371 269Q13333 363 13333 489Q13333 580 13356 656Q13379 732 13418 793Q13458 854 13510 900Q13563 946 13621 976Q13679 1007 13739 1022Q13800 1038 13856 1038Q13930 1038 13985 1022Q14040 1006 14076 979Q14113 952 14131 916Q14149 881 14149 842Q14149 795 14122 757Q14095 720 14050 692ZM13645 541L13856 662Q13869 670 13877 677Q13886 685 13891 695Q13896 706 13898 721Q13901 737 13901 760Q13901 785 13895 815Q13890 846 13877 873Q13864 900 13844 918Q13824 936 13796 936Q13760 936 13734 914Q13709 893 13692 859Q13676 825 13666 781Q13657 738 13652 694Q13647 650 13646 609Q13645 569 13645 541Z" fill="#ffffff" style=""></path></g></g><g transform="matrix(0.75,0,0,0.75,-78.875,1338.575)"><g transform="matrix(0.5,0,0,-0.5,0,0)"><path d="M928 1440Q932 1320 932 1276L932 1098Q932 604 986 336Q1011 215 1053 119Q1363 680 1468 1050Q1546 1323 1546 1580Q1546 1837 1406 2110Q1305 2305 1145 2390Q1062 2433 961 2433Q931 2433 909 2420Q888 2408 877 2402L846 2308Q826 2267 788 2267Q758 2267 754 2308Q760 2327 764 2347Q768 2368 774 2388Q812 2529 990 2529Q1169 2529 1321 2383Q1473 2238 1559 2022Q1645 1806 1645 1638Q1645 902 1145 88Q1079 -20 1033 -20Q987 -20 928 188Q838 522 838 1114Q683 573 504 213Q472 150 442 90Q381 -31 315 -31Q297 -31 284 -14Q272 4 272 35Q272 323 245 569Q219 815 200 959Q182 1103 155 1345Q129 1588 129 1864Q129 1927 154 1945Q180 1964 197 1964Q227 1964 227 1927L217 1800Q217 1736 225 1639Q234 1543 240 1400Q247 1258 303 819Q359 381 371 143Q416 240 454 322Q493 405 528 487Q665 809 834 1442Q831 1544 831 1680Q831 1816 850 1884Q870 1952 918 1952Q975 1952 975 1767Q975 1644 928 1440ZM2077 168Q2112 168 2112 131Q2112 88 2007 34Q1902 -20 1832 -20Q1762 -20 1727 3Q1692 26 1670 67Q1627 147 1627 260Q1627 460 1687 637Q1747 814 1847 930Q1947 1047 2063 1047Q2125 1047 2160 995Q2196 944 2196 874Q2196 743 2127 652Q2059 561 1959 503Q1859 445 1729 393L1725 246Q1725 74 1829 74Q1885 74 1946 106Q2008 139 2035 153Q2062 168 2077 168ZM2102 870Q2102 950 2035 950Q1975 950 1894 842Q1813 734 1760 557Q1747 514 1745 492Q1785 514 1827 534Q1869 554 1909 576Q2001 627 2051 695Q2102 764 2102 870ZM3284 653Q3363 643 3550 635Q3723 896 3993 1404Q4162 1722 4212 1952Q4220 1973 4238 1987Q4256 2001 4273 2001Q4299 2001 4302 1970Q4318 1954 4316 1934Q4315 1914 4304 1903Q4281 1822 4271 1733Q4262 1645 4232 1406Q4203 1167 4203 1004Q4203 841 4228 608Q4351 595 4361 581Q4371 567 4371 550Q4371 533 4352 515Q4334 498 4312 499Q4291 501 4275 503Q4259 506 4242 508L4242 498Q4242 492 4245 467Q4249 442 4249 398Q4250 354 4253 319Q4257 285 4265 248Q4273 211 4288 141Q4304 72 4304 50Q4304 28 4287 11Q4271 -6 4250 -6Q4230 -6 4215 23Q4200 53 4190 99Q4180 145 4173 202Q4167 259 4162 314Q4157 370 4153 417Q4150 465 4146 492L4140 520Q4004 534 3865 536Q3726 538 3587 541Q3323 141 3089 35Q3011 -4 2967 -4Q2913 -4 2913 47Q2913 73 2931 92Q2949 111 2968 111Q2988 111 2999 94L3001 96Q3215 179 3405 432Q3434 472 3452 495Q3470 518 3487 543Q3332 551 3255 559Q3227 570 3227 592Q3227 614 3244 632Q3262 650 3284 653ZM4130 618Q4113 752 4113 981Q4113 1211 4156 1538Q4035 1287 3887 1029Q3740 772 3651 633Q3771 631 3891 629Q4012 628 4130 618ZM4593 4L4639 248Q4675 435 4688 513Q4701 592 4717 686Q4734 781 4785 958Q4783 963 4783 967L4783 977Q4783 1025 4820 1046Q4831 1053 4843 1053Q4886 1053 4886 991Q4886 955 4857 861Q4828 768 4812 688Q4826 711 4846 746Q4867 781 4911 848Q4956 915 5023 975Q5091 1036 5161 1036Q5232 1036 5269 998Q5283 985 5283 965Q5283 945 5265 929Q5247 913 5228 913Q5209 913 5191 923Q5173 934 5151 934Q5129 934 5081 898Q4890 759 4766 347Q4733 237 4726 195Q4719 154 4714 128Q4684 -33 4622 -33Q4593 -33 4593 4ZM5756 168Q5791 168 5791 131Q5791 88 5686 34Q5581 -20 5511 -20Q5441 -20 5406 3Q5371 26 5349 67Q5306 147 5306 260Q5306 460 5366 637Q5426 814 5526 930Q5626 1047 5742 1047Q5804 1047 5839 995Q5875 944 5875 874Q5875 743 5806 652Q5738 561 5638 503Q5538 445 5408 393L5404 246Q5404 74 5508 74Q5564 74 5625 106Q5687 139 5714 153Q5741 168 5756 168ZM5781 870Q5781 950 5714 950Q5654 950 5573 842Q5492 734 5439 557Q5426 514 5424 492Q5464 514 5506 534Q5548 554 5588 576Q5680 627 5730 695Q5781 764 5781 870ZM7024 942Q6939 942 6877 932Q6836 936 6836 967Q6836 985 6851 1004Q6866 1023 6891 1026L7039 1022Q7043 1043 7047 1072Q7052 1102 7063 1158Q7075 1215 7095 1261Q7116 1307 7149 1307Q7182 1307 7182 1270L7182 1257Q7153 1133 7133 1024L7280 1024Q7358 1024 7375 1012Q7393 1000 7393 982Q7393 947 7350 936Q7328 930 7261 930Q7195 930 7117 936Q7098 836 7032 562Q6967 288 6967 208Q6967 129 6985 104Q6998 88 7029 88Q7060 88 7082 106Q7104 124 7122 145Q7140 167 7157 185Q7175 203 7196 203Q7237 203 7237 162Q7237 141 7195 92Q7154 44 7119 18Q7084 -8 7017 -8Q6950 -8 6925 15Q6873 61 6873 162Q6873 214 6885 285L6904 401Q6923 487 6938 551Q6953 616 6964 665Q6975 714 6993 792Q7011 871 7024 942ZM7590 66L7592 31Q7592 -16 7516 -16Q7481 -16 7481 18Q7481 52 7681 970Q7830 1673 7870 1919L7878 1946Q7887 1976 7914 1976Q7965 1976 7979 1925Q7971 1887 7957 1819Q7944 1751 7926 1664Q7908 1577 7887 1476Q7866 1375 7844 1271Q7822 1167 7777 953Q7732 739 7700 594Q7909 1024 8095 1024Q8171 1024 8208 964Q8245 905 8245 833Q8245 761 8219 632L8185 460Q8129 177 8129 122L8132 44Q8132 18 8114 2Q8097 -14 8068 -14Q8039 -14 8025 6Q8012 27 8012 46Q8012 65 8015 80L8134 745Q8140 777 8140 819Q8140 922 8083 922Q7975 922 7789 599Q7684 416 7660 345Q7636 275 7613 183Q7590 92 7590 66ZM8875 168Q8910 168 8910 131Q8910 88 8805 34Q8700 -20 8630 -20Q8560 -20 8525 3Q8490 26 8468 67Q8425 147 8425 260Q8425 460 8485 637Q8545 814 8645 930Q8745 1047 8861 1047Q8923 1047 8958 995Q8994 944 8994 874Q8994 743 8925 652Q8857 561 8757 503Q8657 445 8527 393L8523 246Q8523 74 8627 74Q8683 74 8744 106Q8806 139 8833 153Q8860 168 8875 168ZM8900 870Q8900 950 8833 950Q8773 950 8692 842Q8611 734 8558 557Q8545 514 8543 492Q8583 514 8625 534Q8667 554 8707 576Q8799 627 8849 695Q8900 764 8900 870ZM10080 1094Q10110 1090 10133 1090L10172 1090Q10187 1090 10203 1092L10209 1143Q10240 1404 10305 1706Q9959 1614 9898 1544Q9878 1532 9863 1532Q9826 1532 9826 1569Q9826 1668 10246 1782Q10296 1795 10328 1804Q10347 1884 10363 1939Q10384 1970 10414 1970Q10451 1970 10451 1935Q10451 1921 10442 1907L10426 1831Q10903 1951 11524 1960Q11559 1950 11559 1925Q11559 1907 11544 1889Q11529 1872 11509 1866Q10888 1857 10406 1733Q10377 1589 10348 1446Q10319 1304 10303 1157L10297 1102L10410 1114Q10566 1128 10715 1131Q10865 1135 10920 1137Q10950 1125 10950 1104Q10950 1083 10933 1065Q10917 1048 10895 1044Q10815 1040 10683 1037Q10551 1035 10401 1024L10285 1010Q10237 647 10139 188Q10119 97 10096 -12Q10077 -53 10039 -53Q10008 -53 10004 -12Q10118 529 10146 715Q10175 902 10188 999Q10171 997 10155 997L10121 997Q10077 997 10046 1004Q10016 1011 10016 1036Q10016 1055 10035 1073Q10054 1092 10080 1094ZM11444 -49Q11383 -49 11383 115Q11383 221 11403 332Q11424 443 11446 549Q11409 483 11376 413Q11343 344 11318 301Q11293 259 11278 230Q11149 -16 11038 -16Q10928 -16 10928 203Q10928 484 11017 840L11048 964Q11067 1032 11112 1032Q11138 1032 11147 997Q11144 965 11131 938Q11118 911 11112 878Q11024 434 11024 272L11022 176Q11022 94 11049 94Q11127 94 11314 462Q11343 518 11385 603Q11427 688 11451 732Q11475 777 11494 818Q11573 991 11630 991Q11665 991 11665 952Q11665 914 11626 826Q11587 738 11562 646Q11490 389 11473 109L11473 98Q11473 68 11485 53Q11498 39 11504 32Q11510 26 11510 5Q11510 -15 11486 -32Q11463 -49 11444 -49ZM11988 942Q11903 942 11841 932Q11800 936 11800 967Q11800 985 11815 1004Q11830 1023 11855 1026L12003 1022Q12007 1043 12011 1072Q12016 1102 12027 1158Q12039 1215 12059 1261Q12080 1307 12113 1307Q12146 1307 12146 1270L12146 1257Q12117 1133 12097 1024L12244 1024Q12322 1024 12339 1012Q12357 1000 12357 982Q12357 947 12314 936Q12292 930 12225 930Q12159 930 12081 936Q12062 836 11996 562Q11931 288 11931 208Q11931 129 11949 104Q11962 88 11993 88Q12024 88 12046 106Q12068 124 12086 145Q12104 167 12121 185Q12139 203 12160 203Q12201 203 12201 162Q12201 141 12159 92Q12118 44 12083 18Q12048 -8 11981 -8Q11914 -8 11889 15Q11837 61 11837 162Q11837 214 11849 285L11868 401Q11887 487 11902 551Q11917 616 11928 665Q11939 714 11957 792Q11975 871 11988 942ZM12961 -49Q12900 -49 12900 115Q12900 221 12920 332Q12941 443 12963 549Q12926 483 12893 413Q12860 344 12835 301Q12810 259 12795 230Q12666 -16 12555 -16Q12445 -16 12445 203Q12445 484 12534 840L12565 964Q12584 1032 12629 1032Q12655 1032 12664 997Q12661 965 12648 938Q12635 911 12629 878Q12541 434 12541 272L12539 176Q12539 94 12566 94Q12644 94 12831 462Q12860 518 12902 603Q12944 688 12968 732Q12992 777 13011 818Q13090 991 13147 991Q13182 991 13182 952Q13182 914 13143 826Q13104 738 13079 646Q13007 389 12990 109L12990 98Q12990 68 13002 53Q13015 39 13021 32Q13027 26 13027 5Q13027 -15 13003 -32Q12980 -49 12961 -49ZM13315 4L13361 248Q13397 435 13410 513Q13423 592 13439 686Q13456 781 13507 958Q13505 963 13505 967L13505 977Q13505 1025 13542 1046Q13553 1053 13565 1053Q13608 1053 13608 991Q13608 955 13579 861Q13550 768 13534 688Q13548 711 13568 746Q13589 781 13633 848Q13678 915 13745 975Q13813 1036 13883 1036Q13954 1036 13991 998Q14005 985 14005 965Q14005 945 13987 929Q13969 913 13950 913Q13931 913 13913 923Q13895 934 13873 934Q13851 934 13803 898Q13612 759 13488 347Q13455 237 13448 195Q13441 154 13436 128Q13406 -33 13344 -33Q13315 -33 13315 4ZM14478 168Q14513 168 14513 131Q14513 88 14408 34Q14303 -20 14233 -20Q14163 -20 14128 3Q14093 26 14071 67Q14028 147 14028 260Q14028 460 14088 637Q14148 814 14248 930Q14348 1047 14464 1047Q14526 1047 14561 995Q14597 944 14597 874Q14597 743 14528 652Q14460 561 14360 503Q14260 445 14130 393L14126 246Q14126 74 14230 74Q14286 74 14347 106Q14409 139 14436 153Q14463 168 14478 168ZM14503 870Q14503 950 14436 950Q14376 950 14295 842Q14214 734 14161 557Q14148 514 14146 492Q14186 514 14228 534Q14270 554 14310 576Q14402 627 14452 695Q14503 764 14503 870Z" fill="#ffffff" style=""></path></g></g></g></svg>